<?xml version="1.0" encoding="UTF-8" standalone="no"?>
<!DOCTYPE svg PUBLIC "-//W3C//DTD SVG 1.1//EN"
 "http://www.w3.org/Graphics/SVG/1.1/DTD/svg11.dtd">
<!-- Generated by graphviz version 2.47.3 (20210619.1520)
 -->
<!-- Title: dependencies Pages: 1 -->
<svg width="888pt" height="247pt"
 viewBox="0.00 0.00 888.00 246.80" xmlns="http://www.w3.org/2000/svg" xmlns:xlink="http://www.w3.org/1999/xlink">
<g id="graph0" class="graph" transform="scale(1 1) rotate(0) translate(4 242.8)">
<title>dependencies</title>
<polygon fill="white" stroke="transparent" points="-4,4 -4,-242.8 884,-242.8 884,4 -4,4"/>
<text text-anchor="middle" x="440" y="-8.2" font-family="sans-serif" font-size="14.00">dependencies</text>
<g id="clust1" class="cluster">
<title>cluster_AppModule</title>
<polygon fill="none" stroke="black" stroke-dasharray="1,5" points="8,-32.8 8,-230.8 872,-230.8 872,-32.8 8,-32.8"/>
</g>
<g id="clust2" class="cluster">
<title>cluster_AppModule_declarations</title>
<polygon fill="none" stroke="black" points="332,-40.8 332,-92.8 864,-92.8 864,-40.8 332,-40.8"/>
</g>
<g id="clust7" class="cluster">
<title>cluster_AppModule_imports</title>
<polygon fill="none" stroke="black" points="180,-40.8 180,-92.8 324,-92.8 324,-40.8 180,-40.8"/>
</g>
<g id="clust9" class="cluster">
<title>cluster_AppModule_bootstrap</title>
<polygon fill="none" stroke="black" points="404,-170.8 404,-222.8 528,-222.8 528,-170.8 404,-170.8"/>
</g>
<g id="clust10" class="cluster">
<title>cluster_AppModule_providers</title>
<polygon fill="none" stroke="black" points="16,-40.8 16,-92.8 172,-92.8 172,-40.8 16,-40.8"/>
</g>
<!-- AppComponent -->
<g id="node1" class="node">
<title>AppComponent</title>
<polygon fill="#ffffb3" stroke="black" points="855.94,-84.8 750.06,-84.8 750.06,-48.8 855.94,-48.8 855.94,-84.8"/>
<text text-anchor="middle" x="803" y="-62.6" font-family="Times,serif" font-size="14.00">AppComponent</text>
</g>
<!-- AppModule -->
<g id="node5" class="node">
<title>AppModule</title>
<polygon fill="#8dd3c7" stroke="black" points="507.66,-149.8 504.66,-153.8 483.66,-153.8 480.66,-149.8 424.34,-149.8 424.34,-113.8 507.66,-113.8 507.66,-149.8"/>
<text text-anchor="middle" x="466" y="-127.6" font-family="Times,serif" font-size="14.00">AppModule</text>
</g>
<!-- AppComponent&#45;&gt;AppModule -->
<g id="edge1" class="edge">
<title>AppComponent&#45;&gt;AppModule</title>
<path fill="none" stroke="black" d="M803,-85.08C803,-106.12 803,-137.8 803,-137.8 803,-137.8 517.66,-137.8 517.66,-137.8"/>
<polygon fill="black" stroke="black" points="517.66,-134.3 507.66,-137.8 517.66,-141.3 517.66,-134.3"/>
</g>
<!-- FooterComponent -->
<g id="node2" class="node">
<title>FooterComponent</title>
<polygon fill="#ffffb3" stroke="black" points="731.88,-84.8 614.12,-84.8 614.12,-48.8 731.88,-48.8 731.88,-84.8"/>
<text text-anchor="middle" x="673" y="-62.6" font-family="Times,serif" font-size="14.00">FooterComponent</text>
</g>
<!-- FooterComponent&#45;&gt;AppModule -->
<g id="edge2" class="edge">
<title>FooterComponent&#45;&gt;AppModule</title>
<path fill="none" stroke="black" d="M673,-84.82C673,-102.17 673,-125.8 673,-125.8 673,-125.8 517.89,-125.8 517.89,-125.8"/>
<polygon fill="black" stroke="black" points="517.89,-122.3 507.89,-125.8 517.89,-129.3 517.89,-122.3"/>
</g>
<!-- HeaderComponent -->
<g id="node3" class="node">
<title>HeaderComponent</title>
<polygon fill="#ffffb3" stroke="black" points="595.74,-84.8 474.26,-84.8 474.26,-48.8 595.74,-48.8 595.74,-84.8"/>
<text text-anchor="middle" x="535" y="-62.6" font-family="Times,serif" font-size="14.00">HeaderComponent</text>
</g>
<!-- HeaderComponent&#45;&gt;AppModule -->
<g id="edge3" class="edge">
<title>HeaderComponent&#45;&gt;AppModule</title>
<path fill="none" stroke="black" d="M490.98,-84.91C490.98,-84.91 490.98,-103.79 490.98,-103.79"/>
<polygon fill="black" stroke="black" points="487.48,-103.79 490.98,-113.79 494.48,-103.79 487.48,-103.79"/>
</g>
<!-- HomeComponent -->
<g id="node4" class="node">
<title>HomeComponent</title>
<polygon fill="#ffffb3" stroke="black" points="455.55,-84.8 340.45,-84.8 340.45,-48.8 455.55,-48.8 455.55,-84.8"/>
<text text-anchor="middle" x="398" y="-62.6" font-family="Times,serif" font-size="14.00">HomeComponent</text>
</g>
<!-- HomeComponent&#45;&gt;AppModule -->
<g id="edge4" class="edge">
<title>HomeComponent&#45;&gt;AppModule</title>
<path fill="none" stroke="black" d="M439.97,-84.91C439.97,-84.91 439.97,-103.79 439.97,-103.79"/>
<polygon fill="black" stroke="black" points="436.47,-103.79 439.97,-113.79 443.47,-103.79 436.47,-103.79"/>
</g>
<!-- AppComponent  -->
<g id="node7" class="node">
<title>AppComponent </title>
<polygon fill="#80b1d3" stroke="black" points="520.44,-214.8 411.56,-214.8 411.56,-178.8 520.44,-178.8 520.44,-214.8"/>
<text text-anchor="middle" x="466" y="-192.6" font-family="Times,serif" font-size="14.00">AppComponent </text>
</g>
<!-- AppModule&#45;&gt;AppComponent  -->
<g id="edge6" class="edge">
<title>AppModule&#45;&gt;AppComponent </title>
<path fill="none" stroke="black" stroke-dasharray="1,5" d="M466,-149.91C466,-149.91 466,-168.79 466,-168.79"/>
<polygon fill="black" stroke="black" points="462.5,-168.79 466,-178.79 469.5,-168.79 462.5,-168.79"/>
</g>
<!-- AppRoutingModule -->
<g id="node6" class="node">
<title>AppRoutingModule</title>
<polygon fill="#8dd3c7" stroke="black" points="316.27,-84.8 313.27,-88.8 292.27,-88.8 289.27,-84.8 187.73,-84.8 187.73,-48.8 316.27,-48.8 316.27,-84.8"/>
<text text-anchor="middle" x="252" y="-62.6" font-family="Times,serif" font-size="14.00">AppRoutingModule</text>
</g>
<!-- AppRoutingModule&#45;&gt;AppModule -->
<g id="edge5" class="edge">
<title>AppRoutingModule&#45;&gt;AppModule</title>
<path fill="none" stroke="black" d="M252,-84.82C252,-102.17 252,-125.8 252,-125.8 252,-125.8 414.23,-125.8 414.23,-125.8"/>
<polygon fill="black" stroke="black" points="414.23,-129.3 424.23,-125.8 414.23,-122.3 414.23,-129.3"/>
</g>
<!-- ProductService -->
<g id="node8" class="node">
<title>ProductService</title>
<ellipse fill="#fdb462" stroke="black" cx="94" cy="-66.8" rx="70.06" ry="18"/>
<text text-anchor="middle" x="94" y="-62.6" font-family="Times,serif" font-size="14.00">ProductService</text>
</g>
<!-- ProductService&#45;&gt;AppModule -->
<g id="edge7" class="edge">
<title>ProductService&#45;&gt;AppModule</title>
<path fill="none" stroke="black" d="M94,-85.08C94,-106.12 94,-137.8 94,-137.8 94,-137.8 414.05,-137.8 414.05,-137.8"/>
<polygon fill="black" stroke="black" points="414.05,-141.3 424.05,-137.8 414.05,-134.3 414.05,-141.3"/>
</g>
</g>
</svg>
